<?xml version="1.0" encoding="UTF-8" standalone="no"?>
<!DOCTYPE svg PUBLIC "-//W3C//DTD SVG 1.1//EN" "http://www.w3.org/Graphics/SVG/1.1/DTD/svg11.dtd">
<svg xmlns="http://www.w3.org/2000/svg" version="1.1" viewBox="0.00 0.00 100.00 100.00">
<path fill="#2a65f1" d="
  M 95.94 50.00
  A 45.94 45.94 0.0 0 1 50.00 95.94
  A 45.94 45.94 0.0 0 1 4.06 50.00
  A 45.94 45.94 0.0 0 1 50.00 4.06
  A 45.94 45.94 0.0 0 1 95.94 50.00
  Z
  M 60.93 29.14
  C 56.76 20.15 44.65 19.43 39.56 28.14
  Q 37.32 31.99 38.18 37.79
  Q 38.20 37.97 38.39 37.98
  L 41.72 38.06
  Q 42.05 38.07 42.04 37.73
  Q 41.89 35.27 42.13 33.03
  C 43.00 24.61 54.63 23.56 57.49 31.35
  C 58.24 33.38 57.92 35.61 58.07 37.75
  Q 58.09 37.98 58.31 37.98
  L 61.69 38.02
  Q 61.88 38.02 61.90 37.83
  Q 62.46 32.44 60.93 29.14
  Z
  M 68.00 46.04
  A 4.04 4.04 0.0 0 0 63.96 42.00
  L 36.04 42.00
  A 4.04 4.04 0.0 0 0 32.00 46.04
  L 32.00 65.96
  A 4.04 4.04 0.0 0 0 36.04 70.00
  L 63.96 70.00
  A 4.04 4.04 0.0 0 0 68.00 65.96
  L 68.00 46.04
  Z"
/>
<path fill="#2a65f1" d="
  M 47.04 56.59
  Q 45.35 54.45 46.47 52.33
  C 49.23 47.12 56.44 51.76 53.13 56.32
  Q 51.89 58.04 51.82 60.27
  A 1.66 1.66 0.0 0 1 50.33 61.88
  Q 48.46 62.08 48.20 60.31
  C 47.99 58.86 47.99 57.79 47.04 56.59
  Z"
/>
</svg>
